<?xml version="1.0" encoding="UTF-8"?>
<svg version="1.1" viewBox="0 0 2048 1064" width="5000" height="2598" xmlns="http://www.w3.org/2000/svg">
<path transform="translate(0)" d="m0 0h2048v1064h-2048z" fill="#FCFDFC"/>
<path transform="translate(1528,66)" d="m0 0 9 2-3 2 11 2v3l6-1h17l8 3 6 2 1 5-9 5-9 2-8 4-8 2 1 2 16-1-1-4h8l2 1h8l3 3 1-1h24l1 3 12 1 2 1h14l-1-4 9-1 8 2h9l6 3 2 4v3h-3l5 5 8 4h5l4-6 9 3 8-1h9 3l10 1-3-6 7-2 3-1 22 2 7 2 16 2 5 4 9 3 5 3 11-1h14l13 3 3 2 1 4 9 3h16l16 1 4 1 11 5h5l-6-6h2l1-3 10 2 19 1 23 7 20 8 9 3 5 7 2 1-1-4 14 1 6 4 5 2-5 4h-6l1 4-1 4h-7l-5-3-6-2-3-3-6-1h-6l-2-4-3-1-3 1 2 2-1 4-5 2h-8v2l7 2 2 4 6 5-2 4-12-2-10 4h-7v2l-9 6-4 1-1 3-4-2-6-2-10 1v2l-5-2-4 3-9-1-1 7-3 3 1 4 6 1-1 6 3 3v3l-6-1v6l2 4-2 2-9 1 2 8-7 2-1 7-6 5h-2l-12-28v-9l4-5 1-5 10-3 5-7 6-4 3-4 7-1 1-11 2-1-8-1 1 6-3 1-4 1-5 4h-4l-1-4v-2l-5-1h-12l-7 8-4 2-2 4 6 2v1l-7 1-3-1-5 1-5-3h-6l-3-2-5-1-2 4-5-1h-29l-6 5-3 2-1 3h-3v2l-5 2-6 8-11 7 1 2 8 2 1 4 7 2 4-4h6l9 6 1 11-2 4 1 12-2 9-3 2-3 7h-2l-3 9-5 5-3 4h-2l-2 6-5 4-6 3-5-2-5-1-5 5h-3l-2 11-8 6h-3l1 5 5 5 6 9 1 13-4 5-5 1-8 2v-7l1-4-2-7h2v-4l-5-2-6-2 1-10-6-3h-6l-7 4-3-1 2-5 1-4-2-1h-6l-2 4-5 2-2 4-6 1-2-1v5l3 3 5 1 1 5 5 1 3-3 4-1 4 2 4 1v3l-9 3-5 5-4 5-1 2 5 2 4 5 4 9 4 5-1 4 2 3-6 4 4 1 3 5v3l-2 1v5l-5 4-2 5-4 9v3h-3l-3 6h-4l-1 5-6 4-2 3-11 3-3 2-2-3-2 4-4 1-1 2-5 1-6 2-2 7-3-1 1-7-13-1-2 4-5 1-1 4-3 3-1 7 2 4 2 1 2 6 6 7 3 3 4 8 1 7v10l-2 9-10 7h-4l-2 6-9 6 1-8-5-4-2 1-1-5-3-1-3-7-4-4-5-1-1-5h-4l-2 11-3 7-1 11 4 4 3 12 7 5 8 10 1 7-1 5 1 7 2 3v7l-3 1-8-6-4-5-2-6-3-12v-7l-3-4-3-7-5-6 2-18 1-1-1-12h2l-4-10-2-14-4-7-8 5-1 2-6-1-1-3 1-3v-9l-2-6-3-2-1-6-6-5-3-6-1-7-3-2-2 1 1 2-6 2-9 2h-6l-3 2v5l-4 5-8 4-5 8-4 2-5 5h-2l-1 5-6 2-1 4-4-1v21l-3 7-1 13-3 1-3 7-4 1-1 5-5 1-4-6-3-15-5-10-2-12-3-5-4-11-3-18v-14l-3-9-2 5-5 3-5-1-7-7 1-4 5-1v-2h-7l-4-4-1-2-5-2-2-5-3-5h-15l-3-1v2h-14l-10-2-8-1-5-2-3-8-4 1-10 2-10-5-2-3-6-2-5-10-3-5-9 1-1 3h-2l4 8 3 5 5 6 4 4-1 2v3 2h2l1-4 1-2h2l1 8-1 4 3 2h8l1-2h5l7-6 4-6 1 3 2 9 5 4 8 3 5 7-1 4-4 7-1 5-5-1-1 10-6 3-3 5h-5l-1 5-1 1-7 1-9 4-2 6-9 4-7 3-4 4-14 4-5 2-3 1v2h-9l-1-1-2-9-1-2-1-17-8-12-3-9-8-7-2-5v-8l-3-5-2-5-5-3-2-4v-4h-3l-2-6-6-11v-2l-4-1-3 3-4-4-2-5-3-4 3 7 3 4 6 16 4 6 1 5 2 2 2 7 5 6 2 6 1 15 2 4 5 3 4 13 2 8h3l3 3 5 3 3 5 4 5 4 4-1 5-1 2 3 2 3 5 4 2 6-3 6 1 3-3 10-1 10-2v-2h4v10h-2l-1 9-2 2-2 5-6 13-8 16-7 8-6 7-9 6-8 9-9 14h-2l-2 4-3 3-4 10-3 7-1 3v7l2 2v15l3 9 3 3v33l-4 8-6 7-10 5-6 9-5 1-2 5-2 1 1 7 2 11v8l-2 9-4 3-9 4-1 1v10l-3 12-6 5-7 14-16 17-5 3h-6v2l-7 1-6-1h-6l-2 2-8 1-4 2-5-4v-2h-2l-3-9 2-1-1-7-4-10-3-11-6-8-4-11-1-12-1-2-1-17-6-11-4-12-5-10v-10l2-10 2-12 6-8 2-4-1-9-3-8v-5h2l-11-33-8-9-7-11-1-6 2-4 1-12 3-10-2-6-5-6-4-1-7 2h-6l-2-2-4-10-4-3-16 1-3 3-7 2-10 5-7-2h-16l-9 5-6-1-9-7-5-5-2-1v-2l-3-1v-2l-6-2-4-7-4-11-5-4-5-6v-5l-4 1-4-5v-6-4l-2-7 3-5 3-16-1-8-1-5 1-4-4-6v-6l3-3 4-11 5-5 3-11 4-3h2l3-9 8-3h2l2-4 6-5 1-2v-11l3-5 3-7 6-4 6-3 6-11 4-2 4 4h20l1-3 6-1 4-4 2-1 10-1 4-1 9-1 5 1 5-2h13l4-2 4 1 1 3 4-1-2 3 1 4 1 1-1 7-4 3 1 4 5 2 1 2 8 3h8l8 4 3 6 11 3 7 5 3 1v3l2-1-1-4 3-2-1-9 8-6 6-1 5 3 2 2 9 2 2 2 13 3 11 3 5-3 5-2 5 1 2 2 14-1 2-1 1 5h2l1-10-1-10 3-8v-13-3l-4 2-5-1-8 5-5-1-4-4-5-1-2 4h-7l-1-2-10-4-2-6-3-1-1-3 3-1-3-6-1-3 2-4-5-2h-9l-2 1v2h-5l-2-1 1 4 3 5h-2l-1 4h3l1-2 4 2 2 5-2-1-2 3-8-4 5 4v2l-2 1 1 5-9-2-1-5v-4l1-1-4-1-3-6-6-7v-11l-8-6-6-4-4-1-7-4-4-8-4 1-1-5h-6l-2 2 1 3 1 5 7 5 2 6 4 4 7 2 4 4 8 4 2 2v3h-3v-2l-6-1-1 5 2 1v4l-2 1-1 3-4 2 1-8-3-5-4-3v-2l-4-1-3-3-5-1-11-9-3-4-3-6-5-2-4 1-11 7-10-1-5-1-4 3v7l-4 4-10 4-7 11 2 5-4 2-2 6-4 1-3 5-14 1-6 3h-4l-4-6h-11l-1-9-3-2 3-9v-18l-1-4 6-3 1-2 17 1 7 1h14l2-7v-10l-3-5-4-6-11-4-2-4 5-2 14 1-2-7 5 1 7 1 1-3 7-3 1-5 12-5h2l1-3 3 1 2-3 4-1-1-6 1-1 8-1 5-2h5l-2-11-2-2v-8l2-2 7-2 4-2v6l2 3-4 2v3l3 1v3l-5-2 2 5 4 2 1 2 9-2 5 1 6 2 18-6h6l2 2h5l1-3h7l-1-13 4-6 6-1v2l4 2h4l1-8-4-1-1-5 5-3h21l3-3 3-1-4-3v-2l-6 2-18 3-7 1-7-3-3-3 1-7-1-8 1-3h5v-2l4-3 5-2 4-6 4 1-1-5-14-1h-3v2l-3 1-2 4 1 3-6 5-10 4-4 4h-2l-1 6-1 3 1 4 8 4 1 3h-2l-1 4-9 4-2 10-4 8-8 1-2 4h-6l-2-4 1-5-3-1-6-10-4-8-1-1-2 3-7 4-4 3-6 1-7-3-2-4-4-13 1-7 2-3 5-1v-2l10-4 3-3 3-1 3 1 8-7h2v-2l4-2 3-5v-2l5-5 7-4 4-5-1-2-3-1v-2l5-2 9 1 1-4 8-2 1-3 7 1 3 1v-2l5 2v-3h9l-2-1v-2l9-1 5-2 3 1-4 4h3l3-3 5 1 2-3h4l2 3 1-1h7l5 2-3 2-3 1 7 2 9-1 1 3 10 1 9 1 17 7 7 2 5 3-1 5-8 4-5 1-13-1-11-2-7-1 6 4 3 1-1 5 4 6 9 3 6 1-1-3-6-2 2-4 16 4 2-2-3-4 9-5 5-3 9 2 2 1v-6l-2-1 1-8-3-3 14 1 3 2v2l-9 2 1 2 5 3h9l3-5 16-5 9-3 6-1 2 4h5l2-2 12 1v-2l10-1 1 3 3 1 1-3h4v-3l-14-7 2-2 4 1 6 3 17 1 7 2 9 3 13 5v-4l-5-4h-5l-1-3 2-5-3-2 1-3 7-3 4-8 5-1 14 1 1 4-3 4v2l4 3 1 14 5 3-2 6-5 5-3 1v2l-7 1 13 2v-2l7-3 4-5-1-4v-3l3-2h10l2 2v6l4-4-6-5-9-1h-8l-2-5 2-5-6-5 2-4 7-2-1-5 4 1v4l1 5 2 1h7l-6-3 1-2h9l-4-2v-2l3-1 15 3 8 4 4-1-4-3-7-2-2-6 6-2 23-1 6-1-6-3 5-4 9-3 23-3v-1l7-1h9l7 1 4-1h8l-2-2 10-1 1-3z" fill="#0F7AD0"/>
<path transform="translate(451,101)" d="m0 0h11l8 1v2l-9 6h-9v3l-5 2v3l5 1 2 5 3 2v2l-4 3 3 2v-2l6 1 1 2h-2v6h2l2-4 6-1 4 3-1 3-2 1 2 5 3 1 2-1v-5h3l2 1 3-5 3-2-1-5 4-1h2v-2h-9l-1-1h-8l-6-3v-2l9 1v-2l-10-1-1-2 4-8 5-4 7-3 5-1h8l-1 2-7 4v8l4 4 3-1v-2l-5-1 4-2-2-5 3-1 1-2 12-3h7l4 4-1 5-1 2 4-3 5 1 4-2 11-1 7 3 7 5 6-1 4 2v3l11 1 3 2-3 3 8-1 1 3h-4v2l5 1v1h-6v4l6 2 3 2 10 2 2 3 7 1 4 2-1 3h-4v5l-5 1-2-1v5l-8-1-3-4v-2l-4-1-5-1-2 3-2 1 4 2v2l9 3 3 5 2 1-1 4h-3l-1 4 1 2-5-2-8-3-8-4 4 4 9 6-1 3-12-2-6-3h-8l-5-5v-2l-5-2-1-2-4-1-2-2v2l-10 1-3 1-6-2 2-4 3-3 8 1 12-2v-2h-2l1-3 9-5h2l-2-9-9-3v-2l-4-1-10-5v-3h-7l2 2-6 2-1-1-15 1-4-1-1 1 7 1 2 2 2 1-1 4-5 1 4 6-2 4-8 4-4 1-2 2 1 3-4-2v-2l-5-1v-2l-6 1 2 3-5 4h-2l-1 5-5 4-4 2h-6l-4 3h-4l2 3-3 3-5 1-3 1-2 3h-5l-2 4-6 7-2 6v6h7l2 5v7l5-2 7 1 8 2 5 3 2 3 9 2 2 2 13 1 2 1v9l-1 6 4 5 4 4 1 2 3 1v-2l6-4-1-14-2-4 12-5 7-6v-11l-4-4-4-3 3-3h2l2-4v-6-3l1-5-1-2 1-3h10l8 1 8-1 8 5 2 4 9 1-1 7-1 4h2l1 2 5 3 4 1h4v-2l5-1 2-5 5-6h2l6 10 3 6 3 2 4 12 2 5 5 1 3 2 8 2-3 1v2l4 2 7 3-1 10-4 4 3 1-2 4-3 4-1 3 4-2 4 4 5-1 4 2 1 8-2 3 5 2-2 5-3 1-3-6-5 1v-2l-7 1-18-1 2-3h2l1-5 7-9 5-10-10 3-2 3-7 4h-37l-5 5-9 4-5 6 13-6 7-2h9l2 4-5 4h-6l2 1v2l5-1-1 4 2 6 4 3 11 1 7-9h2l1 5v3l-7 2-1 3-7 3-7 2-5 2-6 5-4-2 1-5 8-5-2-2-10 2-2 4-7 3-10 4-4 4-1 6 4 2-1 5-9-1-2 2-4-1-1 3-7 3-3 7-4 2h-1v6l-4 4-3-6v10l2 5v5l-2 2h-3v5l-8 2-1 4-6 2-5 6-6 3-4 8v10l3 7 1 7 1 3v9l-2 6-5-1-7-11-1-6-1-9-5-6-8 2-3-4h-12l-5-1-7 2-1-1-1 2h4l1 4 1 2-5-2-1 2h-5l-5-5v2l-11-1-5 1-5 6-8 2-1 4h-2v16l-3 5-1 21 4 11 4 6 2 7 7 1 1 2 10-3 9 1v-4l2-1 2-5 1-7 5-3 3-1 13-1-1 6-3 6-1 9-3 1-1 13-2 5h24l3 2v2l5 2v6l-1 1-2 20 5 10 7 6 6 1 8-5 9 3 5 6 4-5 3-3 2-8 2-3 12-4 7-6h4l-1 4h-3l2 6 8-4v-4l3 1v3l7 1 2 6 11-1 5 3 6-1 2-2 9-1 1 6h6l4 4 2 5 8 4 4 4 1 4 5 3 2 3 7 2 1-1h8l10 4 6 7 4 2 3 12 5 6-1 5-4 4 1 2 3-3v2h3l1 2 6 2-2 7h2l2-4 4-1 10 3 4 3 3 1 1 6 1 1 8-1 8 3h10l6 4 6 5 6 6 9 1 3 7 1 5v12l-7 14-5 5-5 13h-3l-1 14 1 5-1 18-2 3v10l-4 9-1 1-1 8-4 3-1 3-12 2-5 3-2 3-6 1-7 9-2 7 1 8v9l-5 6-3 11h-2v-2h-3l-1 6-2 7-2 9-3 1-1 6-5 5h-13l1 9 3 3-1 7-5 8-6 3-8 2h-5v14l-5 3-5-1-5-2 3 10 2 1-1 4 1 4-1 5-1 8-5 2-2 3v7l5 4 5 2 1 5-6 8-1 8-4 3v7l4 8h-4l2 4 5 1v3l3 2v2l4 2 7 4 4 2-1 1h-7v2h-5l1 4-9-1-2-1v-2h-6l-9-5-4-2-4-5-1-5-6-4-2-3 2-2-3-1-1-6h-2l-5-14v-7l1-2h3v-8l-7 1 2-7v-15l4-1 1 5 1-6-1-4v-9l-2-3h-2l2 11-1 2h-3l-1-3v-11l-1-2v-17l-4-11 1-4 2-13 1-7v-18l-3-9v-6l1-3-2-5 1-15v-16l-1-2-1-12v-15l-4-20v-2l-4-2-8-8-9-4-11-8-6-8-1-6-6-11v-2l-3-1-3-7-4-9-4-8-3-4-3-5-6-5-1-6-1-8 2-4 4-3v-3h-2l-3-3-1-10 3-6 1-8 5-2 4-10 4-1 2-8-1-2-1-18-3-6-3-3-3-7-4-1-3 4h-2l2 6-5 2-4-5-3-2-9-2-2-5-6-4-4-1-1-4-2-7-8-8-1-5-7 1-9-5-9-2-12-13-7-1-5 3h-5l-10-4-10-5-5-2-4-4-10-3-2-4-6-3-4-6v-2h2v-8l-4-9-7-10-4-4-1-3-3-1v-2h-3v-7l-6-5-1-3-5-4-4-4-1-5-2-8v-4l-9-3 1 12 6 8 5 10 4 6 3 9 1 1v7l5 1 2 6-4 2-4-7-5-3v-2h-2l-1-10-4-4-5-2-5-6h4v-6l-3-4v-2l-5-2-2-8-4-10-3-9-3-1v-2l-4-1-3-2-5-1-3-7-3-6 1-4-3-1 1-6h-3l-3-5-1-9-1-4 2-4v-13l4-8 4-15-1-14 11 2 1 3v-6-2l-5-5-4-2-2-2 2 4 5 3v4l-9-1-1-3-5-1-5-5-4-5 4-2h2l-2-4 1-3h-2l-3-4-1-3-5-3-1-5h2l1-5-5-1-1-3-2 5-6-2-1-7 2-3-4 2 1-5h2l-2-2v-8l-5-1v2l4 1-1 12-3-1-4-9v-4l-5-2-2-3-5-2-1-3h-6l-4-1-13-1-7-2-3-2v-2l-7 2-1 6-3-1-8 2-9 4h-3v-2h2l1-4 4-5 3-2-4 1-6 4-5 4-6 3 2 3-5 2-1 3-7 2-4 3h-3v2l-9 4h-3l-1 3-12 4-1 2-7-1-1 3-4 1v-4l5-3 8-1 5-4 10-5 5-5 3-5h-6l-1 2h-2l-1-2-6-1-1 2-5-1 1-9-9 2-3-4v-5l-2-4 8-6h2l2-4 12-2 1-1 8-1 1-6 2-2-7 2-4 1-4-1h-10l-2-1v-3h2v-2h-5l-1-2 13-4 6-2h4v4l11-2 1-6h-2v5l-2-2v-3h-5l-2-4-6-3 2-4 3-1 9-1 6-3 1-2 6-3 12-3 3-1 9-1 5-2 9 1 4 1h6l4 3h16l12 2h14l7 3 11 1 1 2 8 2h4v-2l5-3h7l3 1 16-5 10 1 2-4 5 2 3 5 3 1 5-5 2 1-1 4 5-1 3-2h9l3 2 9 2 3 1 15 1 3 2v2l-7 1v2h21l8-1 2 1 1-2 1 4h3v4l1-5v-2l7-1v-2l-8 1v-2l9-2 7-1 1 4h3l1 2 5-1 2 2h18l5 1 1-5h4v-3l-6-1 4-1 2-4 5-1 6 3 1 5-7 2 3 1v6l3 1 1-5 9-4 1-3h-2v-4h-5l-2 1v-3l-3-1 3-9h4l1-3 2-1 1-4-1-4 2-5z" fill="#0F7BD0"/>
<path transform="translate(1006,354)" d="m0 0 4 1 1 3 4-1-2 3 1 4 1 1-1 7-4 3 1 4 5 2 1 2 8 3h8l8 4 3 6 11 3 7 5 3 1v3l2-1-1-4 3-2-1-9 8-6 6-1 5 3 2 2 9 2 2 2 13 3 11 3 5-3 5-2 5 1 3 3 2 14 5 7 6 16 4 6 1 5 2 2 2 7 5 6 2 6 1 15 2 4 5 3 4 13 2 8h3l3 3 5 3 3 5 4 5 4 4-1 5-1 2 3 2 3 5 4 2 6-3 6 1 3-3 10-1 10-2v-2h4v10h-2l-1 9-2 2-2 5-6 13-8 16-7 8-6 7-9 6-8 9-9 14h-2l-2 4-3 3-4 10-3 7-1 3v7l2 2v15l3 9 3 3v33l-4 8-6 7-10 5-6 9-5 1-2 5-2 1 1 7 2 11v8l-2 9-4 3-9 4-1 1v10l-3 12-6 5-7 14-16 17-5 3h-6v2l-7 1-6-1h-6l-2 2-8 1-4 2-5-4v-2h-2l-3-9 2-1-1-7-4-10-3-11-6-8-4-11-1-12-1-2-1-17-6-11-4-12-5-10v-10l2-10 2-12 6-8 2-4-1-9-3-8v-5h2l-11-33-8-9-7-11-1-6 2-4 1-12 3-10-2-6-5-6-4-1-7 2h-6l-2-2-4-10-4-3-16 1-3 3-7 2-10 5-7-2h-16l-9 5-6-1-9-7-5-5-2-1v-2l-3-1v-2l-6-2-4-7-4-11-5-4-5-6v-5l-4 1-4-5v-6-4l-2-7 3-5 3-16-1-8-1-5 1-4-4-6v-6l3-3 4-11 5-5 3-11 4-3h2l3-9 8-3h2l2-4 6-5 1-2v-11l3-5 3-7 6-4 6-3 6-11 4-2 4 4h20l1-3 6-1 4-4 2-1 10-1 4-1 9-1 5 1 5-2h13z" fill="#0F7AD0"/>
<path transform="translate(1711,720)" d="m0 0 5 1 8 5 7 1 6-4 1 1v7l-2 3v8l-2 6 1 9 2 3v3l7 1 3-1v6l2 3 6-7 4-11 2-13 4-12 5-9h1l2 11v16l5 2 2 4-1 5v8l1 3-1 13 1 4 3 2 3 5 3 3 1 16 1 2h3v13h2l2 7v4h2l-1 7-3 11 1 3-3 11-8 15-3 8-3 3-3 5-5 5-7 10-3 6-4 5-6 14-4 3h-7l-8 6h-3l-1 2-3-4-1-5v2 2l-7 1-4 1-4-4-4-1-3-5v-16l-3-5 2-6-2-2-2 1 2-5 3-6-2-2-6 7-5 4-1 3h-2v-8l-2-6-1-2 1-3-2-3-9-4-2-3-15 2-5 2-11 1-7 4h-3l-2 5-5 3-6-1h-11l-3 3-5 2-5 3-7-1-4-6v-6l3-1 4-12-1-15 1-8-2-10v-8l-1-5h2l2-2v-17l4-12 4-2 3-3 6-4 6-5h6l7-4 8-1 6-4h2l2-6 3-3 1-7 5-5 1 4h3v-7h5l2-7 3-2 1-4 5-1 1-2 7-2 3 6v2l9 2-1-5 5-7 4-7 4-3h9v-4h-2v-2z" fill="#0F7AD0"/>
<path transform="translate(774,27)" d="m0 0 32 1 17 1 7 2 15 1 5 1-2 2-4 2 2 1-2 4-4 3 13-4 13 1 5-2h21l3 2-8 2h-6v2l-3 1-15 1 7 1-2 2-6 3-9 1 1 6h-10v5l9 2v2l-4-1 1 2 8 1-1 3h-2l1 5h-2l-2-5h-9l3 2 4 4 1 4-4 1-4-1 5 5 3 2-4 1-3-1v2l-2 1 2 1-1 3h-6l-2 1-9-1-3-2-1 2 13 4-2 1v4l-10-2-2-3-1 1 3 3 7 2 1 4 3-1 2 2v5l-4 1h-2-6l-2-1-2-4-6-2 1 6h-6l1 3h13l7 1-1 2-10 3-9 5-16 3-10 2-7-1-1 2-6 1-2 5-9 6-4 1-7 4-7-1-1 1-7 1-1 2-4 2 1 3-2 1-1 5-7 6-2 1-2 7-4 8h-2l-1 4-6 1-7-4-3-2h-11l-1-4-4-1-6-9v-2l-3-1-4-7-1-9-4-2v-2h-2l1-6-1-2 5-9 6-2 6 1 1-6-2-4-10-2-4-2v-1h7l9 1-1-3-7-1-2-4h-4v2l-4 1-5-2 1-5-1-3h2l-1-4v-4h-2l-2-6-6-2v-2h-2l-3-3-9-2-13-1-10 2-4-1-4 1h-8l-5-2v-1h6v-2h-11l-2-2 12-2v-1l-17-3-1-3 22-5 15-1 6-2-1-4-11-1 1-2 12-3 7-2h10l2-5 7-1 4 1v-2l11-2h14l2 2 1-2h6l8 3-1-4 1-1h13l7 3 9 1-12-4v-1l7-1v-2l14-2 21-1 3 2v-3zm61 48 3 3 4 1-1-3z" fill="#107CD0"/>
<path transform="translate(917,365)" d="m0 0 3 1 3 3h20l1-3 2 1-1 2h11l4 4v3h2v-2l5-3 1 2h-2v2l-4 4 4-1 10 2 5 3 3 8v13l-2 16-2 14-2 5-2 9-6 18-5 11-7 11-4 5-3 5-4 2-2 4-4 7h-2v2h-2l-1 3-7 2-13-1-10-2-5-5-8-9h-2v-2h-3v-4h-2l-1 3-1-4h-2v-14l-1-1v-5l2-5h-3l1-3v-13l-1-3v-12l-3-12-1-6 6-1 2-4 6-5 1-2v-11l3-5 3-7 6-4 6-3 6-11z" fill="#1EABE7"/>
<path transform="translate(490,102)" d="m0 0h8l-1 2-7 4v8l4 4 3-1v-2l-5-1 4-2-2-5 3-1 1-2 12-3h7l4 4-1 5-1 2 4-3 5 1 4-2 11-1 7 3 7 5 6-1 4 2v3l11 1 3 2-3 3 8-1 1 3h-4v2l5 1v1h-6v4l6 2 3 2 10 2 2 3 7 1 4 2-1 3h-4v5l-5 1-2-1v5l-8-1-3-4v-2l-4-1-5-1-2 3-2 1 4 2v2l9 3 3 5 2 1-1 4h-3l-1 4 1 2-5-2-8-3-8-4 4 4 9 6-1 3-12-2-6-3h-8l-5-5v-2l-5-2-1-2-4-1-2-2v2l-10 1-3 1-6-2 2-4 3-3 8 1 12-2v-2h-2l1-3 9-5h2l-2-9-9-3v-2l-4-1-10-5v-3h-7l2 2-6 2-1-1-15 1-4-1-1 2h-6l2-1v-2h-9l-1-1h-8l-6-3v-2l9 1v-2l-10-1-1-2 4-8 5-4 7-3z" fill="#127FD2"/>
<path transform="translate(578,36)" d="m0 0h16l18 1h13l1 1 9 1-1 3-18 3-5 3-18 6-10 4-3 2-10 1-2 1-11 1-3 2h6l1 2-4 1v2h-3v2l-9 1h-2l-1 3-7 1 1 2 6 1-1 2-11 3h-5l-1-1h-17l-7 1-4-1h-14l1-3 10-2 1-2h-2v-2l2-1h6l3 2h3l-1-4h-10l1-2h2l-1-2h-4v2l-4 1-5 1h-14l-1-3h-5l-1-2h3v-2h-8l-2-1v-2h-3v-2l9-5 1-2h9v-2h6l8 5 5 1v2h3v-2l4 1 2 1v3h4v-4l2-1h11l10 3-1-1-1-2 10-2 9-2-3-1-5 2-18 1h-22l-5-2-1-4h-8l1-2 11-1 3-1 16-2 4-1 10 1 4-3h5l7-2h13 2v-1h18z" fill="#1683D4"/>
<path transform="translate(1248,267)" d="m0 0 9 5 8 5 10 13 1 6-3 3-7 3-2 3-10-2-7-1v2l4 2 5 3v4l5 2v6l2-2 5 1 2 4 4 3-1 3-7 1h-2l-1 3 7 2 3 2v3l-3 2v9l1 6-8 2h-7l-14-6-4-8-1-4v-7l-5 1-1-3 2-2 7 3 3-3-4-5-3-5-4-4-2-4-9-7-3-9-4-10v-1h9l2-4-5-1 2-1-3-3v-2l-7-1-1-2h6l6 4 6 1-3-3 1-2 7 1 2-2 5 1v-3l6 1z" fill="#FCFDFC"/>
<path transform="translate(1725,636)" d="m0 0 5 1 5 3-1 13h2l2 5 4 2 2-4 3-5 4-4 7-1 9 6 10 4 6 4 5 2 9 9v5l10 8-1 3h-5l3 9 2 2 1 8 3 1v3l3 1 1 3 2 1v4h-4v-2l-6-1-5-2-5-11v-4l-5-2-3-2-5 1-3 1-1 3h-1v5l-6 2h-7l-6-7h-11l1-5 4-8-2-11-8-7-7-2v-2l-8-4-1 3-2-2-1-4-2-4h5l4-3-8-2-2-4-5-2-1-4 4 1z" fill="#107DD1"/>
<path transform="translate(307,101)" d="m0 0h13l18 2 4 4 2 1 5 1-1 3 3-1h8l3 2h5v-3l5 1 3 1 1 6 3-1-1-8 7-1 3 1-1-3 1-1h9l1 2-5 2 1 15 15 5-1 3h-8l-1 2h3v3l-3 1h-15v-2h-5v-2h-3v2l-15 4-4 1h-16l-1-5h-12l-4-3v-2l13-2 14-1-2-1h-25l-2-1v-2l3-1h7v-2h-9l-3-1v-2l5-1v-3h2v-2l-12 5-4 4-9 2-6 1-5-5-3-1v-2l11-9v-5z" fill="#1381D3"/>
<path transform="translate(1640,579)" d="m0 0h3l1 6 5 2 4 3v2l-6 1 2 4-5 1-2 9 2 4 1 7 4 5-8 3-2 10-3 1-2 4-1 5-2 6-1 7-6 1-3 1-2-4-8-3-1 1h-5l-1-2-7-1-1-5-1-8-3-2-1-9 1-9 4-4 7 3 3-8 8-3h3l2-4 4-7 7-3 2 1-1-4 4-1 2-6z" fill="#107CD1"/>
<path transform="translate(1179,282)" d="m0 0 2 3-7 3 1 4-3 5-5-1v2l12 6 8 7 7 3 3 6-1 4-6 4h-18l-5-2-4-2-5-2-2-1h-9l-9 4h-2v2l-4 1-13-3-4-4-2-6h2l1-5h2l1-8 5-3 2-6 6-6h6l2 3 7 1 1 3-4 1v2l4 2v4l9-5h2l-4-6 2-4 13-4 1-1z" fill="#FCFDFC"/>
<path transform="translate(1237,713)" d="m0 0 3 3 1 3 1 21-3-1-1 9-1 1-2 11-10 30-3 12-3 6-10 5-4-2-4-3-1-14-1-9 6-10 1-7-2-16 3-5 1-4 10-4 5-3 3-4h2l1-8 5-2 1-7z" fill="#107CD1"/>
<path transform="translate(1514,586)" d="m0 0 4 1 3 2h6l5 9 6 5 6 9 4 1 5 4 5 6 2 3-1 5v4l4 2 2 9 4 1 2 4-3 21h-6l-12-12-3-5-4-7-4-14-5-7-3-12-5-4-4-10-5-5-4-8z" fill="#117DD1"/>
<path transform="translate(904,309)" d="m0 0 17 1v1l-5 1 2 2 3 13 6 2v3l-4 1v4l8-1 3 4v3l3 1v2l7-1 1 2-2 3 2 2-4 1-3 5-14 1-6 3h-4l-4-6h-11l-1-9-3-2 3-9v-18l-1-4 6-3z" fill="#1EABE7"/>
<path transform="translate(934,203)" d="m0 0 1 2-4 2v2l11 1-2 5-4 6 8 3 2 6 6 4 2 5 1 5 4-1 3 1-1 5-3 3v2l2 2-9 3-6-1-1 2-3-1-2 1h-7l-1 2h-8l1-2h2l2-4 2-2-5-2-2-1 5-3-1-7h8v-5l-3-4-1-2h-7l1-5-4-1-2-5-2-1 2-3-4-2v-2l5 1 1-4 4-4z" fill="#1182D3"/>
<path transform="translate(1775,331)" d="m0 0 5 1 4 5 1 7-2 6h-3l1 9-1 8v3h-2l-1 3-2 1-1-2h-3l-1 3h-3l-3 2h-5v-2l-2 1 1 3-3 1-3 5h-2l-1-5h-2v-2l-1-1h-4l3 2-1 6-2 1h-4l-2 4h-2l-1-5 2-3-3-2v2l-8-1 1-3 6-3 4-5h8l7-1 3 1 1-4 3-5 6-1 4-2 2-4 2-1 2-6v-13z" fill="#1481D3"/>
<path transform="translate(1324,70)" d="m0 0h10l2 1-1 3-8 2-34 7-4 3h-6v2l-6 4h-2v2l-6 2-2 4-2 2 1 5 6 5 4 3-3 1-17-2-3-3-4 1-1-2-5-1 1-4 5-2-1-3 8-4v-4l7-1 4-8 4-1 7-3 2-1h8v-2l11-1h7l13-2z" fill="#1483D4"/>
<path transform="translate(863,148)" d="m0 0 8 2 2 3 5 2v3l-9 6-6 1-4 2-7 2-7 1-14-4-3-5 2-5-5-1h-5l2-1 1-3 4 1-1-3 7 1 2 2 1 4 5-1v-4l4 2 2-2h10l5-2z" fill="#1182D4"/>
<path transform="translate(1046,49)" d="m0 0 7 1 7 3 2 2 9 1 7 3 1 2 10 3-1 3-6 1-4-1h-5l1-4-4-2 1-3-10 2-1 3h-2l-1 4h-4l-2 5-1 1h-6l-1-3h-6l-2-1 1-2 2 1v-3h-5l-1-2 11-1v-2l-7-1v2l-9 1-6-3 1-3-6-2 1-2 3-1h9l3 2 2-2 7 1 2 1 1-3z" fill="#1781D3"/>
<path transform="translate(1537,546)" d="m0 0h1v12l4 4 3 12 7 5 8 10 1 7-1 5 1 7 2 3v7l-3 1-8-6-4-5-2-6-3-12v-7l-3-4-3-7-5-6 2-18z" fill="#1281D3"/>
<path transform="translate(1221,483)" d="m0 0 3 3 2 9 2 10 2 4-1 4-3 6-6 5-3 3-5-5-1-7-5-1-1-3v-10l-1-5 3-1 2-5 4-2 5-3z" fill="#3C8FD7"/>
<path transform="translate(1205,255)" d="m0 0 4 4 1 4 1 3-3 5v9l2 11 2 1-1 3h-2l2 5 4 1 1 5 6 2 9 9 3 7-1 5-5 1-3-1v-2l-8-2 1-2-4-1-4-12-8-17-2-8v-15l4-9z" fill="#3B8ED6"/>
<path transform="translate(1849,983)" d="m0 0 2 1 1 2h3l-2 7-7 7-3 4-3 1-1 6-8 2-3 1-2 5-6 8-7 6-6 1-1-4-5-1 1-4 4-5 9-7 3-3 7-3 11-8 6-8 4-4z" fill="#127FD2"/>
<path transform="translate(307,101)" d="m0 0h13l18 2 4 4-14 4-14 7-3 3-9 2-6 1-5-5-3-1v-2l11-9v-5z" fill="#117FD2"/>
<path transform="translate(898,313)" d="m0 0h5l1 3 6 2 1 3-1 6v3l-3 8 3 4v2l3 1 1 3 4 3v7l6-2 14-1v3l-14 1-6 3h-4l-4-6h-11l-1-9-3-2 3-9v-18l-1-4z" fill="#1181D3"/>
<path transform="translate(446,81)" d="m0 0h11l6 2h12l1 4 5 2 2 1h15l22-2 9 2-1 4-3 2-14 1h-4l-22 1-4-2-2 1h-13l-3-3 2-3-1-4-1-1h-13l-5-2z" fill="#1483D4"/>
<path transform="translate(1131,134)" d="m0 0h3l2 9 1 2 7 3 1 4 2 1 2 7 5 3v2l16 4 3-1 1 2 5-2h4l1 5-5 1-3-1v2h2l-1 4-4-3-16-3-13-3-8-7-4-10-3-12v-5z" fill="#3C8FD7"/>
<path transform="translate(625,255)" d="m0 0 6 2-2 4-3 4-1 3 4-2 4 4 5-1 4 2 1 8-2 3 5 2-2 5-3 1-3-6-5 1v-2l-7 1-18-1 2-3h2l1-5 7-9 3-6z" fill="#1183D4"/>
<path transform="translate(1570,674)" d="m0 0 9 2 4 2v2l11 2 2-3 6 1 4 2 7 1-2 2h-3l1 3 6 1v2l7 2-2 4-4-3-2 3-5-3-13-1-7-4-11-1-7-3-1-4h-3l2-6z" fill="#1381D3"/>
<path transform="translate(909,227)" d="m0 0 10 1 2 5-4 4v8l-1 3-10 3-8 3-5-1-1-3 4-2 2-4 1-3-5-1 1-5 7-1h2l1-5z" fill="#1182D3"/>
<path transform="translate(381,84)" d="m0 0h4l1 5h12v3l-6 4h-14l-12 3-5 1h-8v-2l3-1-3-2-2 1h-13l-1-2 3-2h4l1-3 7-3 5 1 2 1 7 1 3 3 11 1-1-6-2-1z" fill="#1483D4"/>
<path transform="translate(1477,40)" d="m0 0 10 3 1 4 4 3 6-1 4 2v6l-2 1h-12l-2-1-11-1-5-3v-3l-9 1h-6v-2l6-1-1-2 3-3 12-2z" fill="#1987D5"/>
<path transform="translate(670,796)" d="m0 0 2 1-2 10 2 4 3-1 3-6 2 2-2 7 1 8v9l-5 6-2 7-2-4-3-4-3-2h2l-2-5v-2l-2-2 1-10 1-5 3 1 2-13z" fill="#3990D8"/>
<path transform="translate(1653,636)" d="m0 0 4 2v3h4l2-3 6-1-1 4-6 5 3 6v7l3 5v8h-2v2h-2l1-7 1-1h-3l-1 2h-2v-5l-2-2v-9l-4 1-2 20-5 1 2-9-1-7-2-1v-5l2-3 2-9z" fill="#1483D4"/>
<path transform="translate(594,37)" d="m0 0h31l1 1 9 1-1 3-18 3-5 3-15 5-2-1-1-2-11 1 1 3h-4v-2h2v-2l6-2v-2l2-1 1-4 13-1 3-1-12-1z" fill="#3990D7"/>
<path transform="translate(1874,948)" d="m0 0 2 1v2h2l1 7 3 2 4-1 2-1-2 6-5 6-5 2-5 8-10 11h-3l2-4 4-6-2-5-1-5 6-4 4-8 2-10z" fill="#1382D3"/>
<path transform="translate(459,458)" d="m0 0h12l7 2 5 2 6 2 1 4 4 1 7 3v2l7 2 1 2-5 2h-15l1-2h2l-1-3-2-1v2l-4-2-3-4v-2l-6-1-10-3-1-4-8 2-5 3h-2l1-3z" fill="#1B89D6"/>
<path transform="translate(1667,493)" d="m0 0 6 1 2 2 1 10-2 4-2 1-2 6 3 8 5-1 1 3h5l-2 2 3 4v3l-3-1-5-6h-3l-4-1-3 1-1-5h2l-3-3-2 1-2-8v-4l4 1-1-6 2-11z" fill="#1382D3"/>
<path transform="translate(1775,242)" d="m0 0h3l2 5v6l8 16 1 4h-6l-1 3v8l6 7v2l-7-2v4h-2l-1-16-1-4v-7l-3-11-2-3-1-10z" fill="#1383D4"/>
<path transform="translate(429,102)" d="m0 0 7 1-1 3-4 2 3 1h1l2-1 1 5h-2l-1 4-9 2-1 1h-5l-4-4-8-3-2-3 4-1 8 2-1-3-2-2 4-3h8z" fill="#1584D4"/>
<path transform="translate(1046,49)" d="m0 0 7 1v6l-4 3v3h-6v-2l-7-1v2l-9 1-6-3 1-3-6-2 1-2 3-1h9l3 2 2-2 7 1 2 1 1-3z" fill="#1580D2"/>
<path transform="translate(1780,300)" d="m0 0 8 6 7 4 5 2 2 4-2 2h-7l-3 6-6-2-6-1-5-1 1-5 5 1 1-10-1-5z" fill="#1481D3"/>
<path transform="translate(1716,82)" d="m0 0 9 2 5 2 1-3 7 1 5 1 9 2-3 4-5 1h-21l-4 1-9-4 1-5z" fill="#1584D4"/>
<path transform="translate(1693,559)" d="m0 0 3 3 1 15-4 3-1-2-1 4v5h-4l-4-2v-10l-3-2-1 2-5-2v-2h3l2-4h2v2l7-1v-3l5-1z" fill="#1484D4"/>
<path transform="translate(482,158)" d="m0 0h2l1 4h2l1-2 2 2 10 4 2 3 5 2-1 2h-8l-2-1v-2h-5l-3 3-6 3h-3l-2-3h-5l1-2h3l1-5 3-7z" fill="#1685D5"/>
<path transform="translate(1717,967)" d="m0 0 6 4 10-1-3 10-3 3-3 7h-2l-2 2-4 1-1-1v-11l1-12z" fill="#1180D3"/>
<path transform="translate(1064,46)" d="m0 0 13 1 2 1 1-2 7 1h14l4 2-7 3-1 1-9 1h-14l-18-4v-2z" fill="#1688D6"/>
<path transform="translate(515,480)" d="m0 0 9 1 1-1h6l4 2 1 2 7 3-1 4h-15l-1 4h-2l-3-3h-5l-1-2 4-1-2-6-2-1z" fill="#1686D5"/>
<path transform="translate(423,84)" d="m0 0h15l1 4-1 4h-2v2l-3 1h-10v-3-1l-10 1-7-3-1-4h6l6 4v-3l4-1 4 2v-2z" fill="#1585D5"/>
<path transform="translate(828,31)" d="m0 0 17 1 5 1-2 2-4 2 2 1-2 4-1-2-5-1-5 2h-5l-1-3-18 1h-9l1-2 4-2 25-1z" fill="#2A99DD"/>
<path transform="translate(1425,554)" d="m0 0 4 2 4 10 1 2v9l-5 4-4 1-1-1-1-14 1-12z" fill="#1482D3"/>
<path transform="translate(1185,511)" d="m0 0h3l3 3 5 3 3 5 4 5 4 4-1 5-1 2 3 2v2l-4-1-1-7-3-5-6 1-2-4-5-2-1-9z" fill="#3097DC"/>
<path transform="translate(1038,768)" d="m0 0h17l-6 8-9 4-5-1-4-4-2-6z" fill="#3C8FD7"/>
<path transform="translate(381,84)" d="m0 0h4l1 5h12v3l-6 4h-14l-9 2-4-1-1-3h4l1-2 11 1-1-6-2-1z" fill="#1785D5"/>
<path transform="translate(1725,636)" d="m0 0 5 1 5 3-1 12-11-3-2-4-5-2-1-4 4 1z" fill="#1483D4"/>
<path transform="translate(442,522)" d="m0 0 2 1v2h3l4 9v7l-4 2-3 3-3-8-1-3v-10z" fill="#3C8FD7"/>
<path transform="translate(551,151)" d="m0 0v3l-3 3-2 5-1 5h-3l-2-2v2l-10 1-3 1-6-2 2-4 3-3 8 1 12-2v-2h-2l1-3z" fill="#2F94DA"/>
<path transform="translate(347,79)" d="m0 0h3v2h-2v4l-5 2h-5l1-3-5 2v2l-10 3-3-1h-7v-2l10-3 14-5h7z" fill="#1789D7"/>
<path transform="translate(1054,52)" d="m0 0h5l3 3 9 1 7 3 1 2 10 3-1 3-6 1-4-1h-5l1-4-4-2 1-3-10 2h-3l-1-5z" fill="#2195DC"/>
<path transform="translate(612,37)" d="m0 0h13l1 1 9 1-1 3-18 3-15 1 3-2h3l1-2 3-1-2-2z" fill="#1686D5"/>
<path transform="translate(586,66)" d="m0 0h4l-1 3-3 3 6-2 8 1 2 2v3h-9l-4 1v-2l-17-3-1-3z" fill="#2F91D9"/>
<path transform="translate(1511,55)" d="m0 0h7l15 4v2l-2 1-21 1-7 1 2-4 4-1z" fill="#1686D5"/>
<path transform="translate(871,40)" d="m0 0h21l3 2-8 2h-6v2l-3 1h-16v-2l4-1v-2z" fill="#1684D4"/>
<path transform="translate(1722,383)" d="m0 0 6 1 2 3-1 5-2 8h-3l-1 2-2-2v-2l-1-6 2-1-1-1h-3v-2h-2v-3z" fill="#1888D6"/>
<path transform="translate(1109,113)" d="m0 0h4l2 3 1-1h7l5 2-3 2-3 1 7 2-1 4-4 1v2l-4 1 2-6-6-2-4-4-5-1z" fill="#3493D9"/>
<path transform="translate(518,181)" d="m0 0h10l8 1 8-1 2 2-2 2-19 1-3 3-2 6-2 1-2-4 2-3-1-5z" fill="#1E8CD7"/>
<path transform="translate(1204,512)" d="m0 0h2l1 2 4 1 3 8 3 3h2l1-3 5 1-8 4v2h-9l-1-1-2-9-1-2z" fill="#1283D4"/>
<path transform="translate(817,97)" d="m0 0 10 3 8 3-2 1v4l-10-2-2-3-1 1v2h-8l-2-4h-2v-2l4-1 1 3 2 1-1-4z" fill="#25ADE8"/>
<path transform="translate(1221,306)" d="m0 0 5 3 5 4 3 6 5 5 4 6v3l-4 2-7-4 1-8-5-9-5-3z" fill="#1383D4"/>
<path transform="translate(408,66)" d="m0 0h11l4 1 10 2 3 6-7 1-2-1v-2l-11-1-1-3-7-1z" fill="#198CD8"/>
<path transform="translate(1085,709)" d="m0 0 2 1-6 5-10 5-7 7-9 17-1-2 4-10 6-11 4-4 7-3 4-3z" fill="#3C8FD7"/>
<path transform="translate(459,458)" d="m0 0h12l7 2 1 2h-5l3 2 6 2v1h-7l-10-3-1-4-8 2-5 3h-2l1-3z" fill="#2D92DA"/>
<path transform="translate(1603,481)" d="m0 0h6l-4 10-4 3-5-1v-7l4-4z" fill="#1483D4"/>
<path transform="translate(721,33)" d="m0 0 4 1-3 1 1 5-4 2-1 2-7 1-3-1v-2h8l-12-4v-1l7-1v-2z" fill="#2D9FE0"/>
<path transform="translate(479,554)" d="m0 0 4 2-1 4-4-1-3 4h-2l2 6-5 2-4-5v-4l4-1 5-5z" fill="#178CD8"/>
<path transform="translate(1046,49)" d="m0 0 7 1v6l-4 3v3h-6v-2h-3l2-4 2-6z" fill="#3290D8"/>
<path transform="translate(77,222)" d="m0 0 2 1-2 3-1 3-12 4-1 2-7-1-1 3-4 1v-4l5-3 8-1 5-4z" fill="#1888D6"/>
<path transform="translate(1671,444)" d="m0 0h2l-1 9-5 13-3-3-1-4 4-11z" fill="#1586D5"/>
<path transform="translate(521,103)" d="m0 0h16l7 3v2l-19 1-5-5z" fill="#1689D7"/>
<path transform="translate(1116,402)" d="m0 0 4 1v2h-2l-1 4h-2l-1 5-5 1-3-4 2-5 5-3z" fill="#FDFEFD"/>
<path transform="translate(1103,675)" d="m0 0h1l-1 9-4 13-4 6-6 6-2-1 1-2h2l1-3 3-3 3-9 2-9z" fill="#3C8FD7"/>
<path transform="translate(1661,621)" d="m0 0 5 2 6 1h10l-2 4-2 1-16-1-6-1 2-3 2 1z" fill="#1688D6"/>
<path transform="translate(523,534)" d="m0 0h4l-1 4h-3l5 15-2 5-3-3v-2h-2l1-9-1-4-5 1 5-5z" fill="#2C97DC"/>
<path transform="translate(567,121)" d="m0 0 11 1 3 2-3 3 8-1 1 3h-4v2l5 1v1h-8l-5-5-1-3h-7z" fill="#299ADE"/>
<path transform="translate(405,85)" d="m0 0h6l6 4v-3l4-1 5 3 1 4-2 3-3-1 1-3-10 1-7-3z" fill="#1A92DB"/>
<path transform="translate(1027,348)" d="m0 0 6 1 8-1-1 9-3 1-13-7z" fill="#148BD8"/>
<path transform="translate(674,119)" d="m0 0h2l3 6-1 3-2 1 3 2v2h-5l-1-6-4-1-10-3-1-2h7l9 1z" fill="#2EB1E9"/>
<path transform="translate(1079,345)" d="m0 0 3 1 1 2 5 3v2l-2 1 1 5-9-2-1-5v-4h3z" fill="#168ED9"/>
<path transform="translate(1e3 327)" d="m0 0h3l1 5-1 8-6 2-2-13z" fill="#148CD8"/>
<path transform="translate(1159,383)" d="m0 0h2l1 8-1 11-3-1-2-4h-3l3-5z" fill="#2A99DD"/>
<path transform="translate(501,131)" d="m0 0h5l-1 3h-3l1 3-1 7-1 3-5 2-2-2 3-11 4-4z" fill="#3A90D7"/>
<path transform="translate(1829,675)" d="m0 0 3 1-1 3-10 6-6-1-3-3v-2l15-1z" fill="#1889D6"/>
<path transform="translate(1738,377)" d="m0 0 5 1 2 1-1 6-2 1h-4l-2 4h-2l-1-5z" fill="#3B9DDD"/>
<path transform="translate(197,209)" d="m0 0h2l1 3-1 2 4 1-1 12-3-1-4-9v-4l-2-1h5z" fill="#1B8DD8"/>
<path transform="translate(1743,85)" d="m0 0 9 2-3 4-5 1-13-1v-1h6l-1-4z" fill="#1888D6"/>
<path transform="translate(1673,542)" d="m0 0 6 3 1 8-1 4 1 3-1 2-4-2 1-4 2-3-5-2z" fill="#37A4E2"/>
<path transform="translate(453,88)" d="m0 0 5 5v3l-2 1h-8l-5-2 2-4h8z" fill="#1889D7"/>
<path transform="translate(208,226)" d="m0 0 4 1v2l2 1-1 7h-3l-4-1-1-7z" fill="#2793DA"/>
<path transform="translate(446,81)" d="m0 0h11l12 3v1l-6 1h-13l-5-2z" fill="#1E8BD7"/>
<path transform="translate(442,69)" d="m0 0 9 1 5 1-1 4 6 1v1h-10v-2h-6l-3-3z" fill="#1789D7"/>
<path transform="translate(112,212)" d="m0 0h2v3h-3l-1 5-8 4-4-1 1-4 4-2h4v-2z" fill="#198BD8"/>
<path transform="translate(654,124)" d="m0 0 9 1 6 3-2 2-10 1-3-2z" fill="#1E91DA"/>
<path transform="translate(1179,168)" d="m0 0h4l1 5-5 1-3-1v2h2l-1 4-7-5 1-3 5-2z" fill="#388DD6"/>
<path transform="translate(457,58)" d="m0 0h5l1 5h9l1 4-12-2-5-1v-2h-3v-2z" fill="#41ADE5"/>
<path transform="translate(477,236)" d="m0 0 3 1 3 5-2 4 9 9h-6l-3-3-6-15z" fill="#3C8FD7"/>
<path transform="translate(598,45)" d="m0 0h15l1 2-18 6-2-1 3-4z" fill="#1E8DD8"/>
<path transform="translate(645 1e3)" d="m0 0 12 1v2l-3 3-1 2-9-2-1-5z" fill="#2195DC"/>
<path transform="translate(1759,88)" d="m0 0 14 2 9 2-1 2h-10l-12-3z" fill="#198FDA"/>
<path transform="translate(832,36)" d="m0 0h4l-2 4-1 1h-5l-1-3-18 1h-9l1-2z" fill="#FDFEFD"/>
<path transform="translate(539,181)" d="m0 0 7 1-2 3-19 1-4 3-1-6h9l7 1v-2z" fill="#348FD7"/>
<path transform="translate(535,140)" d="m0 0h7l-1 5-3 2h-7v-4z" fill="#208ED8"/>
<path transform="translate(1729,96)" d="m0 0h4v2l13 2 2 3-1 1-13-1-1-2 1-2-5-1z" fill="#1A8FD9"/>
<path transform="translate(1680,697)" d="m0 0h6v2l-10 4-7 7h-2l1-5 5-3h2l1-3z" fill="#1A8FDA"/>
<path transform="translate(501,474)" d="m0 0 7 2 1 2-5 2h-15l1-2h2v-3h2v2l6-1z" fill="#2B99DD"/>
<path transform="translate(821,101)" d="m0 0h7l7 2-2 1v4l-10-2z" fill="#1791DB"/>
<path transform="translate(1780,278)" d="m0 0h1l2 7 5 6v2l-7-2v4h-2v-15z" fill="#1B8FD9"/>
<path transform="translate(205,242)" d="m0 0 6 1 1 11 1 2-4-2-3-3-2-8z" fill="#188CD8"/>
<path transform="translate(1946,124)" d="m0 0h10l3 1v3h-18l3-3z" fill="#188DD9"/>
<path transform="translate(701,785)" d="m0 0 10 1v1h-5v2l-8 2-3 2-2 3h-5l-1-2 8-4 2-3z" fill="#3695DA"/>
<path transform="translate(1112,327)" d="m0 0h10l2 3-3 2h-10l-3-2z" fill="#FDFEFD"/>
<path transform="translate(591,70)" d="m0 0 9 1 2 2v3h-9l-4 1v-5z" fill="#6CB6E6"/>
<path transform="translate(1077,61)" d="m0 0 9 2 3 1-1 3-6 1-7-2z" fill="#198CD8"/>
<path transform="translate(1033,51)" d="m0 0h6l4 3-2 4-5 1v2h-2l2-7h-3z" fill="#2C91D9"/>
<path transform="translate(1677,524)" d="m0 0 2 1v2h5l-2 2 3 4v3l-3-1-5-6h-3l-4-3z" fill="#2095DC"/>
<path transform="translate(368,92)" d="m0 0 12 1-4 4-9 1-3-3 4-1z" fill="#1A8DD8"/>
<path transform="translate(741,31)" d="m0 0h5v3l-6-1 1 4h-7l-5-2v-2z" fill="#26A3E3"/>
<path transform="translate(466,562)" d="m0 0h6l3 5-1 3-4 1-4-5z" fill="#2C8FD8"/>
<path transform="translate(451,400)" d="m0 0 2 3 5 6h-3l-8 2-2-4 4-1 1-5z" fill="#3192D9"/>
<path transform="translate(811,38)" d="m0 0h16l1 2 4 2-11 1-1-4-3 1h-8z" fill="#33AEE7"/>
<path transform="translate(561,932)" d="m0 0 1 2h-2l2 11-1 2h-3l-1-3v-9l1-2z" fill="#1B91DA"/>
<path transform="translate(653,618)" d="m0 0 1 2h3l1 2 5 1v1h-9l-2-1-2 4-3-2v-5l4 1z" fill="#3CB7EA"/>
<path transform="translate(1020,51)" d="m0 0h9l-1 2-3 2 1 2-1 2 2 1-2 1-4-3v-3l-5-1 1-2z" fill="#2598DD"/>
<path transform="translate(528,480)" d="m0 0 5 1 3 3 7 3-1 4-9-1 4-2v-2l-4-2-5-2z" fill="#2999DD"/>
<path transform="translate(600,288)" d="m0 0h2l1 5v3l-5 2h-4l1-4z" fill="#1891DB"/>
<path transform="translate(1042,128)" d="m0 0 7 1-4 1v3l3 1-2 2-5 1-1-4-3-1v-2z" fill="#2EA8E4"/>
<path transform="translate(1064,46)" d="m0 0h5l-3 2v2h5l1 3-7-1-9-2v-2z" fill="#21A0E1"/>
<path transform="translate(1116,115)" d="m0 0h7l5 2-6 4h-5v-3h-2z" fill="#2692DA"/>
<path transform="translate(848,69)" d="m0 0 2 2 8 1-1 3h-2l1 5h-2l-2-5-8-1v-2l3-1z" fill="#239BDF"/>
<path transform="translate(1707,654)" d="m0 0 5 2 1 1v5l-5-3-9-1 1-3z" fill="#1989D7"/>
<path transform="translate(494,470)" d="m0 0 4 1 3 1-1 5h-6v-2l-2-1v-3z" fill="#1783D4"/>
<path transform="translate(1043,54)" d="m0 0 4 1 2 4v3h-6v-2h-3l2-4z" fill="#48AEE5"/>
<path transform="translate(1874,931)" d="m0 0 3 1 1 6-3 8h-1l-1-12z" fill="#1D8ED9"/>
<path transform="translate(575,176)" d="m0 0 5 2 4 3-1 3-12-2 1-2 5-1-2-1z" fill="#2B94DB"/>
<path transform="translate(380,138)" d="m0 0 2 1-1 3-7 2v-2l-8 1v-2l9-2z" fill="#2AA8E5"/>
<path transform="translate(376,75)" d="m0 0 4 2-2 2-6 1-7-1-1-2z" fill="#1B8DD9"/>
<path transform="translate(656,40)" d="m0 0h14l1 2-21 2-1-3z" fill="#2D96DB"/>
<path transform="translate(1220,408)" d="m0 0 3 2h3v7h-3l-2 3-1-2z" fill="#3C8FD7"/>
<path transform="translate(800,116)" d="m0 0h8v3l-4-1-1 3 3 3h-5l-2-5z" fill="#7BCEF0"/>
<path transform="translate(861,47)" d="m0 0 9 2-2 2-6 3h-9v-1h5l-1-3 4-1z" fill="#4BB6E9"/>
<path transform="translate(637,281)" d="m0 0 9 3-2 5-3 1-3-6z" fill="#1795DD"/>
<path transform="translate(523,123)" d="m0 0 7 1v2h-6l2 2-6 2-2-4z" fill="#2D95DB"/>
<path transform="translate(806,29)" d="m0 0h17l5 1v1l-15 1h-2l-4-1z" fill="#1FACE8"/>
<path transform="translate(1668,637)" d="m0 0 1 3-7 6h-2l-1-4 4-4z" fill="#198BD7"/>
<path transform="translate(395,132)" d="m0 0h4v2h3v3l-3 1h-15v-2h-5v-1h6v2l13-1z" fill="#2A9FE0"/>
<path transform="translate(1729,741)" d="m0 0 3 2-1 9-2 1-4-4z" fill="#ECF7FB"/>
<path transform="translate(1701,618)" d="m0 0 2 3 2 1-1 5v3l-6-2 2-9z" fill="#37A7E3"/>
<path transform="translate(1221,306)" d="m0 0 5 3 5 4 3 6 2 2-4-1-4-6-5-3z" fill="#1788D6"/>
<path transform="translate(505,133)" d="m0 0h5l-1 5-6 2-1-4v-2z" fill="#1588D6"/>
<path transform="translate(1083,116)" d="m0 0 5 1-1 5h-3-8v-3h9l-2-1z" fill="#2B9FE0"/>
<path transform="translate(1189,476)" d="m0 0 4 2 3 4v3l4 1-2 5h-2l-4-11z" fill="#3196DB"/>
<path transform="translate(298,451)" d="m0 0 4 1 2 6-4 2-3-5z" fill="#178BD7"/>
<path transform="translate(405,85)" d="m0 0h6l5 5-4 1-6-2z" fill="#1B8BD8"/>
<path transform="translate(524,547)" d="m0 0 3 3 1 5-3 3-3-5 1-5z" fill="#FDFEFD"/>
<path transform="translate(1167,296)" d="m0 0 5 1v2l6 2 5 5h-3l-2-2-7-3-4-3z" fill="#2B99DD"/>
<path transform="translate(533,125)" d="m0 0h4v2h2l1 4-4 1-5-3v-3z" fill="#3395DA"/>
<path transform="translate(590,80)" d="m0 0h2v2h9v2l-4 1h-8l-5-2v-1h6z" fill="#269FE1"/>
<path transform="translate(487,490)" d="m0 0 7 1 3 3-9 1-3-4z" fill="#2898DD"/>
<path transform="translate(1570,641)" d="m0 0h2l4 10h-4l-2-5-2-1z" fill="#198ED9"/>
<path transform="translate(495,602)" d="m0 0 1 3-3 15h-1l-2-8z" fill="#3C8FD7"/>
<path transform="translate(1687,538)" d="m0 0h5l1 10h-3l-2-6z" fill="#1789D7"/>
<path transform="translate(1022,221)" d="m0 0h3l-1 5h-2l-1 3-4-3v-3z" fill="#1792DB"/>
<path transform="translate(517,211)" d="m0 0 3 1 1 5v8l-5 5v-3l2-2v-11z" fill="#2B9ADD"/>
<path transform="translate(1054,52)" d="m0 0h5l3 3v3l2 1-6 2v-5z" fill="#3096DB"/>
<path transform="translate(1020,753)" d="m0 0h2l3 4h3l1 3-2 4h-2l-5-9z" fill="#3192D9"/>
<path transform="translate(1648,695)" d="m0 0 12 1-3 3h-7l-5-1 1-2z" fill="#1D93DB"/>
<path transform="translate(1160,385)" d="m0 0 2 1v11l-1 5-3-1z" fill="#FDFEFD"/>
<path transform="translate(658,121)" d="m0 0h7l7 3v2l-10-2-4-2z" fill="#259CDF"/>
<path transform="translate(344,90)" d="m0 0 2 2-1 3h6v1h-13l-1-2 3-2h4z" fill="#2299DE"/>
<path transform="translate(1673,542)" d="m0 0 6 3-1 3h-2l-2 4-1-1z" fill="#198BD7"/>
<path transform="translate(484,164)" d="m0 0 4 4-5 3-2 3-1-5 2-4 2 1z" fill="#3C8FD7"/>
<path transform="translate(258,131)" d="m0 0 9 2-3 2-7 1h-3v-4z" fill="#2AA9E5"/>
<path transform="translate(864,44)" d="m0 0 14 1v2h-16v-2z" fill="#2E9CDF"/>
<path transform="translate(1626,694)" d="m0 0 9 2-1 3h-7v-2h-2z" fill="#2299DE"/>
<path transform="translate(1170,281)" d="m0 0h6l-1 2-12 4h-3v-2l9-3z" fill="#2E96DC"/>
<path transform="translate(199,212)" d="m0 0h6v8l1 3h-2l-1 3h-1l1-11-4-1z" fill="#FDFEFD"/>
<path transform="translate(551,151)" d="m0 0v3l-3 3-2 5-5-1 3-2h2v-2h-2l1-3z" fill="#2793DA"/>
<path transform="translate(524,114)" d="m0 0 8 1 1 2-16 2v-2z" fill="#3A8ED6"/>
<path transform="translate(1188,516)" d="m0 0 4 4 2 6-2 1-3-2z" fill="#E8F6FB"/>
<path transform="translate(1181,327)" d="m0 0 9 1v2h-16l1-2z" fill="#2E9ADD"/>
<path transform="translate(1183,283)" d="m0 0 1 3-6 3-1 3h-2l-2-5 7-2z" fill="#2C96DB"/>
<path transform="translate(582,268)" d="m0 0 8 1 5 3v1l-9-1z" fill="#1F98DE"/>
<path transform="translate(1229,124)" d="m0 0h6l2 2-3 2h-7v-3z" fill="#1587D6"/>
<path transform="translate(471,122)" d="m0 0 9 1v2l4 1-7 1-6-3z" fill="#1B94DC"/>
<path transform="translate(1097,113)" d="m0 0 3 1-5 5-2 1v-2l-3 1v-2l-2-1z" fill="#2F9BDE"/>
<path transform="translate(1036,59)" d="m0 0 7 1v2l-9 2-2-2 4-1z" fill="#FDFEFD"/>
<path transform="translate(459,458)" d="m0 0 5 1v1l-7 2-5 3h-2l1-3z" fill="#239FE1"/>
<path transform="translate(986,372)" d="m0 0 5 3v3l-5 1-1-1v-5z" fill="#FDFEFD"/>
<path transform="translate(1179,228)" d="m0 0 3 3 2 4v4l-4-1-1-6z" fill="#3C8FD7"/>
<path transform="translate(466,65)" d="m0 0 4 1 1 4 7 1v1h-8l-1-3h-5l-1-2h3z" fill="#219CE0"/>
<path transform="translate(1032,63)" d="m0 0h7l6 2v2l-7 1v-3h-5z" fill="#1FACE8"/>
<path transform="translate(1642,703)" d="m0 0h5l2 2v4l-4-1-4-4z" fill="#1C8BD7"/>
<path transform="translate(1115,323)" d="m0 0 11 3-1 3-13-2 4-1z" fill="#279DDF"/>
<path transform="translate(950,301)" d="m0 0h6v3h-2l-1 2-5-1v-3z" fill="#1EAAE7"/>
<path transform="translate(1156,294)" d="m0 0 3 2v2l-9 5h-2v-4l8-1z" fill="#2B9BDE"/>
<path transform="translate(56,231)" d="m0 0h2v2h3l-1 2-4-1-1 3-4 1v-4z" fill="#2098DE"/>
<path transform="translate(408,109)" d="m0 0 9 2-3 1v2h-5l-3-4z" fill="#1893DC"/>
<path transform="translate(1736,86)" d="m0 0 4 1 1 4 3 1-13-1v-1h6z" fill="#69C0EB"/>
<path transform="translate(506,50)" d="m0 0h4l-1 5h-5l-2-4z" fill="#4BBCEC"/>
<path transform="translate(886,40)" d="m0 0 9 1-4 2-7 1-2-3z" fill="#2A9CDF"/>
<path transform="translate(836,36)" d="m0 0h6l4 2-2 4-1-2-8-1z" fill="#24A6E4"/>
<path transform="translate(1615,691)" d="m0 0 7 2-2 4-4-3-2 3-2-2h2z" fill="#1A9CE0"/>
<path transform="translate(1185,511)" d="m0 0h3l1 5v7l-2 1-1-9z" fill="#2D9BDE"/>
<path transform="translate(904,309)" d="m0 0 17 1v1l-15 1-5 1z" fill="#1A9CE0"/>
<path transform="translate(208,214)" d="m0 0h1v8l-4 6h-2l1-5h2v-4h2z" fill="#60B9E8"/>
<path transform="translate(498,106)" d="m0 0 3 1-3 3-1 7-5-1 4-2-2-5 3-1z" fill="#1D96DD"/>
<path transform="translate(584,77)" d="m0 0h8v2l-13 1-2-2z" fill="#2B9ADE"/>
<path transform="translate(786,28)" d="m0 0h6v2h-4l1 3h-5l-1-4z" fill="#28A3E2"/>
<path transform="translate(645 1e3)" d="m0 0h3l2 7-6-1-1-5z" fill="#1586D5"/>
<path transform="translate(696,789)" d="m0 0 4 1-5 3-2 3h-5l-1-2 8-4z" fill="#2A99DD"/>
<path transform="translate(482,239)" d="m0 0 3 1-1 8 2 2-1 3-5-7 2-1z" fill="#1584D4"/>
<path transform="translate(612,52)" d="m0 0 2 1-1 3h-11l1-2z" fill="#2394DB"/>
<path transform="translate(636,43)" d="m0 0 9 1-1 2h-6l-4 1v-3z" fill="#2896DC"/>
<path transform="translate(463,431)" d="m0 0 3 1 5 7 3 1v2l-5-1-6-9z" fill="#2B95DB"/>
<path transform="translate(1e3 316)" d="m0 0 3 1-2 7h-2l-1-7z" fill="#1690DA"/>
<path transform="translate(500,167)" d="m0 0 5 3 2 2-1 1h-8l1-4z" fill="#1D90DA"/>
<path transform="translate(533,141)" d="m0 0 5 4v2h-7v-4z" fill="#3097DC"/>
<path transform="translate(1285,117)" d="m0 0 4 1 5 2-2 2-5-1-4-2z" fill="#1B94DC"/>
<path transform="translate(518,72)" d="m0 0h2v3l-5 3-3-1-4-2 9-2z" fill="#32AEE7"/>
<path transform="translate(1664,530)" d="m0 0 5 1 1 3-1 4h-2l-3-6z" fill="#1A8FDA"/>
<path transform="translate(480,248)" d="m0 0 4 2 3 1 3 4h-6l-3-3z" fill="#3694DA"/>
<path transform="translate(608,147)" d="m0 0 6 2-1 3-5 1-1-5z" fill="#2898DD"/>
<path transform="translate(586,127)" d="m0 0 1 2h-4v2l5 1v1h-8l1-5z" fill="#1FACE8"/>
<path transform="translate(576,124)" d="m0 0 3 1-1 2 8-1v2l-5 1-2 3-3-6z" fill="#259BDF"/>
<path transform="translate(1419,108)" d="m0 0 3 1-1 5-5-1v-3z" fill="#EBF7FB"/>
<path transform="translate(444,72)" d="m0 0h2v2h8l7 2v1h-10v-2h-6z" fill="#23A7E5"/>
<path transform="translate(501,50)" d="m0 0h5l-3 2-1 3h-6l1-4z" fill="#2B95DB"/>
<path transform="translate(605,45)" d="m0 0h8l1 2-9 2-1-3z" fill="#30B2E9"/>
<path transform="translate(531,40)" d="m0 0h6v2h-2l-1 3-4-1-2-2z" fill="#229EE1"/>
</svg>
